<svg width="23" height="21" viewBox="0 0 23 21" fill="none" xmlns="http://www.w3.org/2000/svg">
  <path d="M3.59215 16.5792C1.60826 16.5792 0 14.9709 0 12.987V3.59215C0 1.60826 1.60826 0 3.59215 0H18.5134C20.4973 0 22.1055 1.60826 22.1055 3.59215V12.987C22.1055 14.9709 20.4973 16.5792 18.5134 16.5792H12.1718L6.6302 20.7247C6.01917 21.1817 5.15335 21.0569 4.69633 20.4458C4.51766 20.2069 4.42111 19.9166 4.42111 19.6186L4.42024 16.5792H3.59215ZM11.6203 14.9212H18.5134C19.5816 14.9212 20.4476 14.0553 20.4476 12.987V3.59215C20.4476 2.5239 19.5816 1.65792 18.5134 1.65792H3.59215C2.5239 1.65792 1.65792 2.5239 1.65792 3.59215V12.987C1.65792 14.0553 2.5239 14.9212 3.59215 14.9212H6.07768L6.07792 15.75L6.07887 19.0667L11.6203 14.9212Z" fill="#262626"/>
</svg>
