<svg xmlns="http://www.w3.org/2000/svg" width="24" height="24" viewBox="0 0 24 24">
  <style type="text/css">
    .st0{fill:#262626;}
  </style>
    <path class="st0" d="M12,22.6c-0.3,0-0.6-0.1-0.9-0.3C2.5,17.1,1.2,11.7,1.2,9c0-3.1,2.6-5.7,5.8-5.7c2.2,0,4.1,1.6,5,2.6
		c0.9-1,2.8-2.6,5-2.6c3.2,0,5.8,2.6,5.8,5.7c0,2.7-1.3,8.1-9.8,13.4C12.6,22.5,12.3,22.6,12,22.6z M7,4.7C4.7,4.7,2.8,6.6,2.8,9
		c0,2.4,1.2,7.2,9.1,12.1c0.1,0,0.2,0,0.2,0c7.9-4.9,9.1-9.7,9.1-12.1c0-2.3-1.9-4.2-4.2-4.2c-2.3,0-4.4,2.7-4.4,2.7
		c-0.1,0.2-0.4,0.3-0.6,0.3l0,0c-0.2,0-0.5-0.1-0.6-0.3C11.4,7.4,9.3,4.7,7,4.7z"/>
</svg>
