<svg xmlns="http://www.w3.org/2000/svg" width="500" height="500" viewBox="0 0 500 500">
  <style type="text/css">
    .st0{fill:#262626;}
    .st1{fill:#FDB3FF;}
    .st2{fill:#78FFFB;}
    .st3{fill:#A7A3FF;}
    .st4{fill:#016FFB;}
  </style>
  <g>
    <path class="st0" d="M155.2,0h189.6C430.5,0,500,69.5,500,155.2v189.6c0,85.7-69.5,155.2-155.2,155.2H155.2
		C69.5,500,0,430.5,0,344.8V155.2C0,69.5,69.5,0,155.2,0z"/>
    <path class="st1" d="M155.2,0c-11.7,0-23.1,1.4-34,3.9l-1,300.9c-0.2,39.5,31.7,71.7,71.1,71.8c39.5,0.2,71.6-31.7,71.8-71.1
		l1-305.4H155.2z"/>
    <path class="st2" d="M500,155.2c0-34.9-11.7-67-31.1-92.9l-307.8,179c-34.2,19.8-45.9,63.5-26.2,97.6
		c19.8,34.2,63.5,45.9,97.6,26.2L500,209.5V155.2z"/>
    <path class="st3" d="M379.5,496c52.3-12,94.5-50.3,111.8-100.4L230.4,244.6c-34.1-19.8-77.8-7.9-97.6,26.2
		c-19.8,34.1-7.9,77.8,26.2,97.6L379.5,496z"/>
    <path class="st4" d="M262.7,347.3l-35.5,20.5c-34.1,19.8-77.8,8.1-97.6-26.2c-19.8-34.1-8.1-77.8,26.2-97.6c21.2-12.7,47.5-13,69-1
		L335,305L262.7,347.3z"/>
  </g>
</svg>
