<svg xmlns="http://www.w3.org/2000/svg" width="24" height="24" viewBox="0 0 24 24">
  <style type="text/css">
    .st0{fill:#262626;}
  </style>
  <path class="st0" d="M16.5,20.7c-1.8,0-3.2-1.5-3.2-3.2c0-0.4,0.1-0.8,0.2-1.2l-4.7-2.5c-0.6,0.6-1.4,1-2.3,1
		c-1.8,0-3.2-1.5-3.2-3.2c0-1.8,1.5-3.2,3.2-3.2c0.7,0,1.4,0.2,2,0.7l4.9-2.6c-0.1-0.2-0.1-0.5-0.1-0.8c0-1.8,1.5-3.2,3.2-3.2
		s3.2,1.5,3.2,3.2s-1.5,3.3-3.2,3.3c-1,0-1.9-0.4-2.5-1.1l-4.6,2.5c0.2,0.4,0.3,0.9,0.3,1.4c0,0.4-0.1,0.7-0.2,1l4.8,2.6
		c0.6-0.5,1.3-0.8,2.2-0.8c1.8,0,3.2,1.5,3.2,3.2S18.3,20.7,16.5,20.7z M16.5,15.7c-1,0-1.8,0.8-1.8,1.7s0.8,1.8,1.8,1.8
		s1.8-0.8,1.8-1.8S17.5,15.7,16.5,15.7z M6.5,9.7c-1,0-1.8,0.8-1.8,1.8s0.8,1.7,1.8,1.7s1.8-0.8,1.8-1.7S7.5,9.7,6.5,9.7z M16.5,3.7
		c-1,0-1.8,0.8-1.8,1.7s0.8,1.8,1.8,1.8s1.8-0.8,1.8-1.8S17.5,3.7,16.5,3.7z"/>
</svg>
