<svg width="24" height="24" viewBox="0 0 24 24" fill="none" xmlns="http://www.w3.org/2000/svg">
  <path d="M14.5001 15.9998L8.00012 12.4998M14.5001 6.49982L8.00012 9.99982M14.0001 17.4998C14.0001 16.1191 15.1194 14.9998 16.5001 14.9998C17.8808 14.9998 19.0001 16.1191 19.0001 17.4998C19.0001 18.8805 17.8808 19.9998 16.5001 19.9998C15.1194 19.9998 14.0001 18.8805 14.0001 17.4998ZM4.00012 11.4998C4.00012 10.1191 5.11941 8.99982 6.50012 8.99982C7.88083 8.99982 9.00012 10.1191 9.00012 11.4998C9.00012 12.8805 7.88083 13.9998 6.50012 13.9998C5.11941 13.9998 4.00012 12.8805 4.00012 11.4998ZM14.0001 5.49982C14.0001 4.1191 15.1194 2.99982 16.5001 2.99982C17.8808 2.99982 19.0001 4.1191 19.0001 5.49982C19.0001 6.88053 17.8808 7.99982 16.5001 7.99982C15.1194 7.99982 14.0001 6.88053 14.0001 5.49982Z" stroke="#262626" stroke-width="1.5"/>
</svg>
