<svg width="14" height="14" viewBox="0 0 14 14" fill="none" xmlns="http://www.w3.org/2000/svg">
  <path d="M6.51719 0.793165C6.65002 0.299824 7.34997 0.299822 7.48281 0.793163L8.62221 5.02497C8.66854 5.19705 8.80295 5.33146 8.97502 5.37779L13.2068 6.51719C13.7002 6.65002 13.7002 7.34997 13.2068 7.48281L8.97503 8.62221C8.80295 8.66854 8.66854 8.80295 8.62221 8.97502L7.48281 13.2068C7.34998 13.7002 6.65003 13.7002 6.51719 13.2068L5.37779 8.97503C5.33146 8.80295 5.19705 8.66854 5.02497 8.62221L0.793165 7.48281C0.299824 7.34998 0.299822 6.65003 0.793163 6.51719L5.02497 5.37779C5.19705 5.33146 5.33146 5.19705 5.37779 5.02498L6.51719 0.793165Z" fill="#262626"/>
</svg>
