<svg xmlns="http://www.w3.org/2000/svg">
  <style>:root svg:not(:target){display:none}</style>
  <svg id="share" viewBox="0 0 24 24">
    <path d="M16.5,20.7c-1.8,0-3.2-1.5-3.2-3.2c0-0.4,0.1-0.8,0.2-1.2l-4.7-2.5c-0.6,0.6-1.4,1-2.3,1
		c-1.8,0-3.2-1.5-3.2-3.2c0-1.8,1.5-3.2,3.2-3.2c0.7,0,1.4,0.2,2,0.7l4.9-2.6c-0.1-0.2-0.1-0.5-0.1-0.8c0-1.8,1.5-3.2,3.2-3.2
		s3.2,1.5,3.2,3.2s-1.5,3.3-3.2,3.3c-1,0-1.9-0.4-2.5-1.1l-4.6,2.5c0.2,0.4,0.3,0.9,0.3,1.4c0,0.4-0.1,0.7-0.2,1l4.8,2.6
		c0.6-0.5,1.3-0.8,2.2-0.8c1.8,0,3.2,1.5,3.2,3.2S18.3,20.7,16.5,20.7z M16.5,15.7c-1,0-1.8,0.8-1.8,1.7s0.8,1.8,1.8,1.8
		s1.8-0.8,1.8-1.8S17.5,15.7,16.5,15.7z M6.5,9.7c-1,0-1.8,0.8-1.8,1.8s0.8,1.7,1.8,1.7s1.8-0.8,1.8-1.7S7.5,9.7,6.5,9.7z M16.5,3.7
		c-1,0-1.8,0.8-1.8,1.7s0.8,1.8,1.8,1.8s1.8-0.8,1.8-1.8S17.5,3.7,16.5,3.7z"></path>
  </svg>
  <svg id="heart" viewBox="0 0 24 24">
    <path class="st0" d="M12,22.6c-0.3,0-0.6-0.1-0.9-0.3C2.5,17.1,1.2,11.7,1.2,9c0-3.1,2.6-5.7,5.8-5.7c2.2,0,4.1,1.6,5,2.6
		c0.9-1,2.8-2.6,5-2.6c3.2,0,5.8,2.6,5.8,5.7c0,2.7-1.3,8.1-9.8,13.4C12.6,22.5,12.3,22.6,12,22.6z M7,4.7C4.7,4.7,2.8,6.6,2.8,9
		c0,2.4,1.2,7.2,9.1,12.1c0.1,0,0.2,0,0.2,0c7.9-4.9,9.1-9.7,9.1-12.1c0-2.3-1.9-4.2-4.2-4.2c-2.3,0-4.4,2.7-4.4,2.7
		c-0.1,0.2-0.4,0.3-0.6,0.3l0,0c-0.2,0-0.5-0.1-0.6-0.3C11.4,7.4,9.3,4.7,7,4.7z"/>
  </svg>
</svg>
